<svg xmlns="http://www.w3.org/2000/svg" width="1200" height="675" viewBox="0 0 1200 675">
  <defs>
    <linearGradient id="accent" x1="0" y1="0" x2="1" y2="1"><stop offset="0" stop-color="#d4af37"/><stop offset="1" stop-color="#fef3c7"/></linearGradient>
    <radialGradient id="bg" cx="50%" cy="42%" r="75%"><stop offset="0" stop-color="#d4af37" stop-opacity=".18"/><stop offset=".48" stop-color="#fef3c7" stop-opacity=".10"/><stop offset="1" stop-color="#030303"/></radialGradient>
    <filter id="glow"><feGaussianBlur stdDeviation="7" result="blur"/><feMerge><feMergeNode in="blur"/><feMergeNode in="SourceGraphic"/></feMerge></filter>
  </defs>
  <rect width="1200" height="675" rx="38" fill="url(#bg)"/>
  <rect x="30" y="30" width="1140" height="615" rx="32" fill="#030303" opacity=".72" stroke="#d4af37" stroke-opacity=".28"/>
  <circle cx="72" cy="63" r="8" fill="#ff5f57"/><circle cx="98" cy="63" r="8" fill="#ffbd2e"/><circle cx="124" cy="63" r="8" fill="#28c840"/>
  <text x="600" y="70" text-anchor="middle" fill="#fff8dc" font-family="Inter, Arial" font-size="20" font-weight="700">Sonosphere</text>
  <rect x="56" y="104" width="220" height="486" rx="22" fill="rgba(14,12,8,.94)" opacity=".82" stroke="rgba(212,175,55,.24)"/>
  <rect x="88" y="178" width="156" height="52" rx="14" fill="url(#accent)" opacity=".90"/>
  <text x="108" y="211" fill="#fff" font-family="Inter, Arial" font-size="20" font-weight="700">Living Room</text>
  <text x="88" y="148" fill="#fff8dc" font-family="Inter, Arial" font-size="24" font-weight="800">Rooms</text>
  <rect x="304" y="104" width="560" height="486" rx="24" fill="rgba(14,12,8,.94)" opacity=".72" stroke="rgba(212,175,55,.24)"/>
  <rect x="430" y="154" width="308" height="258" rx="26" fill="#030303" stroke="url(#accent)" stroke-width="3"/>
  <circle cx="584" cy="284" r="94" fill="url(#accent)" opacity=".14" stroke="url(#accent)" stroke-width="3"/>
  <g filter="url(#glow)"><rect x="320.0" y="325.0" width="5" height="18.0" rx="2.5" fill="url(#accent)" opacity="0.25"/><rect x="330.0" y="318.4" width="5" height="31.3" rx="2.5" fill="url(#accent)" opacity="0.35"/><rect x="340.0" y="311.7" width="5" height="44.6" rx="2.5" fill="url(#accent)" opacity="0.45"/><rect x="350.0" y="305.1" width="5" height="57.9" rx="2.5" fill="url(#accent)" opacity="0.55"/><rect x="360.0" y="298.4" width="5" height="71.2" rx="2.5" fill="url(#accent)" opacity="0.65"/><rect x="370.0" y="321.2" width="5" height="25.6" rx="2.5" fill="url(#accent)" opacity="0.75"/><rect x="380.0" y="314.6" width="5" height="38.9" rx="2.5" fill="url(#accent)" opacity="0.85"/><rect x="390.0" y="307.9" width="5" height="52.2" rx="2.5" fill="url(#accent)" opacity="0.25"/><rect x="400.0" y="301.2" width="5" height="65.5" rx="2.5" fill="url(#accent)" opacity="0.35"/><rect x="410.0" y="324.1" width="5" height="19.9" rx="2.5" fill="url(#accent)" opacity="0.45"/><rect x="420.0" y="317.4" width="5" height="33.2" rx="2.5" fill="url(#accent)" opacity="0.55"/><rect x="430.0" y="310.8" width="5" height="46.5" rx="2.5" fill="url(#accent)" opacity="0.65"/><rect x="440.0" y="304.1" width="5" height="59.8" rx="2.5" fill="url(#accent)" opacity="0.75"/><rect x="450.0" y="297.4" width="5" height="73.1" rx="2.5" fill="url(#accent)" opacity="0.85"/><rect x="460.0" y="320.2" width="5" height="27.5" rx="2.5" fill="url(#accent)" opacity="0.25"/><rect x="470.0" y="313.6" width="5" height="40.8" rx="2.5" fill="url(#accent)" opacity="0.35"/><rect x="480.0" y="306.9" width="5" height="54.1" rx="2.5" fill="url(#accent)" opacity="0.45"/><rect x="490.0" y="300.3" width="5" height="67.4" rx="2.5" fill="url(#accent)" opacity="0.55"/><rect x="500.0" y="323.1" width="5" height="21.8" rx="2.5" fill="url(#accent)" opacity="0.65"/><rect x="510.0" y="316.4" width="5" height="35.1" rx="2.5" fill="url(#accent)" opacity="0.75"/><rect x="520.0" y="309.8" width="5" height="48.4" rx="2.5" fill="url(#accent)" opacity="0.85"/><rect x="530.0" y="303.1" width="5" height="61.7" rx="2.5" fill="url(#accent)" opacity="0.25"/><rect x="540.0" y="296.5" width="5" height="75.0" rx="2.5" fill="url(#accent)" opacity="0.35"/><rect x="550.0" y="319.3" width="5" height="29.4" rx="2.5" fill="url(#accent)" opacity="0.45"/><rect x="560.0" y="312.6" width="5" height="42.7" rx="2.5" fill="url(#accent)" opacity="0.55"/><rect x="570.0" y="306.0" width="5" height="56.0" rx="2.5" fill="url(#accent)" opacity="0.65"/><rect x="580.0" y="299.4" width="5" height="69.3" rx="2.5" fill="url(#accent)" opacity="0.75"/><rect x="590.0" y="322.1" width="5" height="23.7" rx="2.5" fill="url(#accent)" opacity="0.85"/><rect x="600.0" y="315.5" width="5" height="37.0" rx="2.5" fill="url(#accent)" opacity="0.25"/><rect x="610.0" y="308.9" width="5" height="50.3" rx="2.5" fill="url(#accent)" opacity="0.35"/><rect x="620.0" y="302.2" width="5" height="63.6" rx="2.5" fill="url(#accent)" opacity="0.45"/><rect x="630.0" y="325.0" width="5" height="18.0" rx="2.5" fill="url(#accent)" opacity="0.55"/><rect x="640.0" y="318.4" width="5" height="31.3" rx="2.5" fill="url(#accent)" opacity="0.65"/><rect x="650.0" y="311.7" width="5" height="44.6" rx="2.5" fill="url(#accent)" opacity="0.75"/><rect x="660.0" y="305.1" width="5" height="57.9" rx="2.5" fill="url(#accent)" opacity="0.85"/><rect x="670.0" y="298.4" width="5" height="71.2" rx="2.5" fill="url(#accent)" opacity="0.25"/><rect x="680.0" y="321.2" width="5" height="25.6" rx="2.5" fill="url(#accent)" opacity="0.35"/><rect x="690.0" y="314.6" width="5" height="38.9" rx="2.5" fill="url(#accent)" opacity="0.45"/><rect x="700.0" y="307.9" width="5" height="52.2" rx="2.5" fill="url(#accent)" opacity="0.55"/><rect x="710.0" y="301.2" width="5" height="65.5" rx="2.5" fill="url(#accent)" opacity="0.65"/><rect x="720.0" y="324.1" width="5" height="19.9" rx="2.5" fill="url(#accent)" opacity="0.75"/><rect x="730.0" y="317.4" width="5" height="33.2" rx="2.5" fill="url(#accent)" opacity="0.85"/><rect x="740.0" y="310.8" width="5" height="46.5" rx="2.5" fill="url(#accent)" opacity="0.25"/><rect x="750.0" y="304.1" width="5" height="59.8" rx="2.5" fill="url(#accent)" opacity="0.35"/><rect x="760.0" y="297.4" width="5" height="73.1" rx="2.5" fill="url(#accent)" opacity="0.45"/><rect x="770.0" y="320.2" width="5" height="27.5" rx="2.5" fill="url(#accent)" opacity="0.55"/><rect x="780.0" y="313.6" width="5" height="40.8" rx="2.5" fill="url(#accent)" opacity="0.65"/><rect x="790.0" y="306.9" width="5" height="54.1" rx="2.5" fill="url(#accent)" opacity="0.75"/><rect x="800.0" y="300.3" width="5" height="67.4" rx="2.5" fill="url(#accent)" opacity="0.85"/><ellipse cx="584" cy="388" rx="232" ry="36" fill="none" stroke="url(#accent)" stroke-width="3" opacity=".48"/></g>
  <text x="584" y="462" text-anchor="middle" fill="#fff8dc" font-family="Inter, Arial" font-size="34" font-weight="900">Black Gold</text>
  <text x="584" y="498" text-anchor="middle" fill="#cbbf98" font-family="Inter, Arial" font-size="20">Luxury · lux-line</text>
  <rect x="438" y="536" width="292" height="8" rx="4" fill="#cbbf98" opacity=".25"/><rect x="438" y="536" width="168" height="8" rx="4" fill="url(#accent)"/>
  <circle cx="584" cy="585" r="34" fill="url(#accent)" filter="url(#glow)"/><rect x="572" y="566" width="9" height="38" rx="4" fill="#fff"/><rect x="588" y="566" width="9" height="38" rx="4" fill="#fff"/>
  <rect x="894" y="104" width="250" height="486" rx="22" fill="rgba(14,12,8,.94)" opacity=".76" stroke="rgba(212,175,55,.24)"/>
  <text x="916" y="148" fill="#fff8dc" font-family="Inter, Arial" font-size="24" font-weight="800">Up Next</text>
  <rect x="916" y="164" width="190" height="42" rx="10" fill="#d4af37" opacity="0.10"/><rect x="916" y="226" width="190" height="42" rx="10" fill="#d4af37" opacity="0.12"/><rect x="916" y="288" width="190" height="42" rx="10" fill="#d4af37" opacity="0.14"/><rect x="916" y="350" width="190" height="42" rx="10" fill="#d4af37" opacity="0.15"/><rect x="916" y="412" width="190" height="42" rx="10" fill="#d4af37" opacity="0.17"/><rect x="916" y="474" width="190" height="42" rx="10" fill="#d4af37" opacity="0.19"/>
  <text x="60" y="628" fill="#cbbf98" font-family="Inter, Arial" font-size="18">black-gold · piano lacquer</text>
</svg>