<svg xmlns="http://www.w3.org/2000/svg" width="1200" height="675" viewBox="0 0 1200 675">
  <defs>
    <linearGradient id="accent" x1="0" y1="0" x2="1" y2="1"><stop offset="0" stop-color="#bfdbfe"/><stop offset="1" stop-color="#8b5cf6"/></linearGradient>
    <radialGradient id="bggrad" cx="50%" cy="42%" r="76%"><stop offset="0" stop-color="#bfdbfe" stop-opacity=".16"/><stop offset=".46" stop-color="#8b5cf6" stop-opacity=".10"/><stop offset="1" stop-color="#eef6ff"/></radialGradient>
    <filter id="glow"><feGaussianBlur stdDeviation="7" result="blur"/><feMerge><feMergeNode in="blur"/><feMergeNode in="SourceGraphic"/></feMerge></filter>
  </defs>
  <rect width="1200" height="675" rx="38" fill="url(#bggrad)"/>
  <rect x="30" y="30" width="1140" height="615" rx="34" fill="#eef6ff" opacity=".76" stroke="#bfdbfe" stroke-opacity=".22"/>
  <circle cx="72" cy="63" r="8" fill="#ff5f57"/><circle cx="98" cy="63" r="8" fill="#ffbd2e"/><circle cx="124" cy="63" r="8" fill="#28c840"/>
  <text x="600" y="70" text-anchor="middle" fill="#0f172a" font-family="Inter, Arial" font-size="20" font-weight="700">Sonosphere</text>
  <rect x="56" y="104" width="220" height="486" rx="24" fill="rgba(255,255,255,.48)" opacity=".84" stroke="rgba(191,219,254,.24)"/>
  <text x="88" y="148" fill="#0f172a" font-family="Inter, Arial" font-size="24" font-weight="800">Rooms</text>
  <rect x="88" y="178" width="156" height="52" rx="14" fill="url(#accent)" opacity=".90"/>
  <text x="108" y="211" fill="#fff" font-family="Inter, Arial" font-size="20" font-weight="700">Living Room</text>
  <rect x="304" y="104" width="560" height="486" rx="26" fill="rgba(255,255,255,.48)" opacity=".72" stroke="rgba(191,219,254,.24)"/>
  <rect x="430" y="154" width="308" height="258" rx="26" fill="#eef6ff" stroke="url(#accent)" stroke-width="3"/>
  <circle cx="584" cy="284" r="96" fill="url(#accent)" opacity=".13" stroke="url(#accent)" stroke-width="3"/>
  <g filter="url(#glow)"><rect x="342.0" y="327.0" width="5" height="14.0" rx="2.5" fill="url(#accent)" opacity="0.24"/><rect x="352.0" y="318.8" width="5" height="30.5" rx="2.5" fill="url(#accent)" opacity="0.32"/><rect x="362.0" y="310.5" width="5" height="47.0" rx="2.5" fill="url(#accent)" opacity="0.39"/><rect x="372.0" y="302.2" width="5" height="63.5" rx="2.5" fill="url(#accent)" opacity="0.46"/><rect x="382.0" y="320.2" width="5" height="27.5" rx="2.5" fill="url(#accent)" opacity="0.54"/><rect x="392.0" y="312.0" width="5" height="44.0" rx="2.5" fill="url(#accent)" opacity="0.61"/><rect x="402.0" y="303.8" width="5" height="60.5" rx="2.5" fill="url(#accent)" opacity="0.69"/><rect x="412.0" y="321.8" width="5" height="24.5" rx="2.5" fill="url(#accent)" opacity="0.77"/><rect x="422.0" y="313.5" width="5" height="41.0" rx="2.5" fill="url(#accent)" opacity="0.24"/><rect x="432.0" y="305.2" width="5" height="57.5" rx="2.5" fill="url(#accent)" opacity="0.32"/><rect x="442.0" y="323.2" width="5" height="21.5" rx="2.5" fill="url(#accent)" opacity="0.39"/><rect x="452.0" y="315.0" width="5" height="38.0" rx="2.5" fill="url(#accent)" opacity="0.46"/><rect x="462.0" y="306.8" width="5" height="54.5" rx="2.5" fill="url(#accent)" opacity="0.54"/><rect x="472.0" y="324.8" width="5" height="18.5" rx="2.5" fill="url(#accent)" opacity="0.61"/><rect x="482.0" y="316.5" width="5" height="35.0" rx="2.5" fill="url(#accent)" opacity="0.69"/><rect x="492.0" y="308.2" width="5" height="51.5" rx="2.5" fill="url(#accent)" opacity="0.77"/><rect x="502.0" y="326.2" width="5" height="15.5" rx="2.5" fill="url(#accent)" opacity="0.24"/><rect x="512.0" y="318.0" width="5" height="32.0" rx="2.5" fill="url(#accent)" opacity="0.32"/><rect x="522.0" y="309.8" width="5" height="48.5" rx="2.5" fill="url(#accent)" opacity="0.39"/><rect x="532.0" y="301.5" width="5" height="65.0" rx="2.5" fill="url(#accent)" opacity="0.46"/><rect x="542.0" y="319.5" width="5" height="29.0" rx="2.5" fill="url(#accent)" opacity="0.54"/><rect x="552.0" y="311.2" width="5" height="45.5" rx="2.5" fill="url(#accent)" opacity="0.61"/><rect x="562.0" y="303.0" width="5" height="62.0" rx="2.5" fill="url(#accent)" opacity="0.69"/><rect x="572.0" y="321.0" width="5" height="26.0" rx="2.5" fill="url(#accent)" opacity="0.77"/><rect x="582.0" y="312.8" width="5" height="42.5" rx="2.5" fill="url(#accent)" opacity="0.24"/><rect x="592.0" y="304.5" width="5" height="59.0" rx="2.5" fill="url(#accent)" opacity="0.32"/><rect x="602.0" y="322.5" width="5" height="23.0" rx="2.5" fill="url(#accent)" opacity="0.39"/><rect x="612.0" y="314.2" width="5" height="39.5" rx="2.5" fill="url(#accent)" opacity="0.46"/><rect x="622.0" y="306.0" width="5" height="56.0" rx="2.5" fill="url(#accent)" opacity="0.54"/><rect x="632.0" y="324.0" width="5" height="20.0" rx="2.5" fill="url(#accent)" opacity="0.61"/><rect x="642.0" y="315.8" width="5" height="36.5" rx="2.5" fill="url(#accent)" opacity="0.69"/><rect x="652.0" y="307.5" width="5" height="53.0" rx="2.5" fill="url(#accent)" opacity="0.77"/><rect x="662.0" y="325.5" width="5" height="17.0" rx="2.5" fill="url(#accent)" opacity="0.24"/><rect x="672.0" y="317.2" width="5" height="33.5" rx="2.5" fill="url(#accent)" opacity="0.32"/><rect x="682.0" y="309.0" width="5" height="50.0" rx="2.5" fill="url(#accent)" opacity="0.39"/><rect x="692.0" y="327.0" width="5" height="14.0" rx="2.5" fill="url(#accent)" opacity="0.46"/><rect x="702.0" y="318.8" width="5" height="30.5" rx="2.5" fill="url(#accent)" opacity="0.54"/><rect x="712.0" y="310.5" width="5" height="47.0" rx="2.5" fill="url(#accent)" opacity="0.61"/><rect x="722.0" y="302.2" width="5" height="63.5" rx="2.5" fill="url(#accent)" opacity="0.69"/><rect x="732.0" y="320.2" width="5" height="27.5" rx="2.5" fill="url(#accent)" opacity="0.77"/><rect x="742.0" y="312.0" width="5" height="44.0" rx="2.5" fill="url(#accent)" opacity="0.24"/><rect x="752.0" y="303.8" width="5" height="60.5" rx="2.5" fill="url(#accent)" opacity="0.32"/><rect x="762.0" y="321.8" width="5" height="24.5" rx="2.5" fill="url(#accent)" opacity="0.39"/><rect x="772.0" y="313.5" width="5" height="41.0" rx="2.5" fill="url(#accent)" opacity="0.46"/><rect x="782.0" y="305.2" width="5" height="57.5" rx="2.5" fill="url(#accent)" opacity="0.54"/><rect x="792.0" y="323.2" width="5" height="21.5" rx="2.5" fill="url(#accent)" opacity="0.61"/><ellipse cx="584" cy="388" rx="232" ry="36" fill="none" stroke="url(#accent)" stroke-width="3" opacity=".42"/></g>
  <text x="584" y="462" text-anchor="middle" fill="#0f172a" font-family="Inter, Arial" font-size="34" font-weight="900">Architectural Premium</text>
  <text x="584" y="498" text-anchor="middle" fill="#64748b" font-family="Inter, Arial" font-size="20">Architectural Premium · crystal-line</text>
  <rect x="438" y="536" width="292" height="8" rx="4" fill="#64748b" opacity=".22"/><rect x="438" y="536" width="168" height="8" rx="4" fill="url(#accent)"/>
  <circle cx="584" cy="585" r="34" fill="url(#accent)" filter="url(#glow)"/><rect x="572" y="566" width="9" height="38" rx="4" fill="#fff"/><rect x="588" y="566" width="9" height="38" rx="4" fill="#fff"/>
  <rect x="894" y="104" width="250" height="486" rx="24" fill="rgba(255,255,255,.48)" opacity=".77" stroke="rgba(191,219,254,.24)"/>
  <text x="916" y="148" fill="#0f172a" font-family="Inter, Arial" font-size="24" font-weight="800">Up Next</text>
  <rect x="916" y="164" width="190" height="42" rx="12" fill="#bfdbfe" opacity="0.08"/><rect x="916" y="226" width="190" height="42" rx="12" fill="#bfdbfe" opacity="0.10"/><rect x="916" y="288" width="190" height="42" rx="12" fill="#bfdbfe" opacity="0.12"/><rect x="916" y="350" width="190" height="42" rx="12" fill="#bfdbfe" opacity="0.13"/><rect x="916" y="412" width="190" height="42" rx="12" fill="#bfdbfe" opacity="0.15"/><rect x="916" y="474" width="190" height="42" rx="12" fill="#bfdbfe" opacity="0.17"/>
  <text x="60" y="628" fill="#64748b" font-family="Inter, Arial" font-size="18">crystal-palace · architectural glass</text>
</svg>